<?xml version="1.0" encoding="us-ascii" standalone="no"?><svg xmlns="http://www.w3.org/2000/svg" xmlns:xlink="http://www.w3.org/1999/xlink" contentStyleType="text/css" height="157px" preserveAspectRatio="none" style="width:149px;height:157px;background:#FFFFFF;" version="1.1" viewBox="0 0 149 157" width="149px" zoomAndPan="magnify"><defs/><g><!--class Rating--><g id="elem_Rating"><rect codeLine="1" fill="#F1F1F1" height="136.0469" id="Rating" rx="2.5" ry="2.5" style="stroke:#181818;stroke-width:0.5;" width="128" x="7" y="7"/><ellipse cx="46.75" cy="23" fill="#ADD1B2" rx="11" ry="11" style="stroke:#181818;stroke-width:1.0;"/><path d="M49.5156,18.875 Q49.6719,18.6563 49.8594,18.5469 Q50.0469,18.4375 50.2656,18.4375 Q50.6406,18.4375 50.875,18.7031 Q51.1094,18.9531 51.1094,19.5625 L51.1094,21.0156 Q51.1094,21.625 50.875,21.8906 Q50.6406,22.1563 50.2656,22.1563 Q49.9219,22.1563 49.7188,21.9531 Q49.5156,21.7656 49.4063,21.25 Q49.3594,20.8906 49.1719,20.7031 Q48.8438,20.3281 48.2344,20.1094 Q47.625,19.8906 47,19.8906 Q46.2344,19.8906 45.5938,20.2188 Q44.9688,20.5469 44.4688,21.2969 Q43.9844,22.0469 43.9844,23.0781 L43.9844,24.1719 Q43.9844,25.4063 44.875,26.2344 Q45.7656,27.0469 47.3594,27.0469 Q48.2969,27.0469 48.9531,26.7969 Q49.3438,26.6406 49.7656,26.2031 Q50.0313,25.9375 50.1719,25.8594 Q50.3281,25.7813 50.5313,25.7813 Q50.8594,25.7813 51.1094,26.0469 Q51.375,26.2969 51.375,26.6406 Q51.375,26.9844 51.0313,27.3906 Q50.5313,27.9688 49.7344,28.2969 Q48.6563,28.75 47.3594,28.75 Q45.8438,28.75 44.6406,28.125 Q43.6563,27.625 42.9688,26.5625 Q42.2813,25.4844 42.2813,24.2031 L42.2813,23.0469 Q42.2813,21.7188 42.8906,20.5781 Q43.5156,19.4219 44.6094,18.8125 Q45.7031,18.1875 46.9375,18.1875 Q47.6719,18.1875 48.3125,18.3594 Q48.9688,18.5156 49.5156,18.875 Z " fill="#000000"/><text fill="#000000" font-family="sans-serif" font-size="14" lengthAdjust="spacing" textLength="41" x="66.25" y="28.7285">Rating</text><line style="stroke:#181818;stroke-width:0.5;" x1="8" x2="134" y1="39" y2="39"/><rect fill="none" height="6" style="stroke:#C82930;stroke-width:1.0;" width="6" x="15" y="50.3047"/><text fill="#000000" font-family="sans-serif" font-size="14" lengthAdjust="spacing" textLength="71" x="27" y="57.5332">id: ObjectId</text><rect fill="none" height="6" style="stroke:#C82930;stroke-width:1.0;" width="6" x="15" y="67.9141"/><text fill="#000000" font-family="sans-serif" font-size="14" lengthAdjust="spacing" textLength="93" x="27" y="75.1426">product: String</text><rect fill="none" height="6" style="stroke:#C82930;stroke-width:1.0;" width="6" x="15" y="85.5234"/><text fill="#000000" font-family="sans-serif" font-size="14" lengthAdjust="spacing" textLength="102" x="27" y="92.752">comment: String</text><rect fill="none" height="6" style="stroke:#C82930;stroke-width:1.0;" width="6" x="15" y="103.1328"/><text fill="#000000" font-family="sans-serif" font-size="14" lengthAdjust="spacing" textLength="57" x="27" y="110.3613">value: int</text><rect fill="none" height="6" style="stroke:#C82930;stroke-width:1.0;" width="6" x="15" y="120.7422"/><text fill="#000000" font-family="sans-serif" font-size="14" lengthAdjust="spacing" textLength="88" x="27" y="127.9707">source: String</text><line style="stroke:#181818;stroke-width:0.5;" x1="8" x2="134" y1="135.0469" y2="135.0469"/></g><!--SRC=[Kr1GK4ZEIImkLWXABCdCIrUevbA00bs5p1Gh1V-ahDJa4iyK9E62eloKqkGIAuNWaYAW5YIPvFpStDGyR39bYJcbgLOAcNabI8B5-QL5oQaegci1]--></g></svg>