<?xml version="1.0" encoding="us-ascii" standalone="no"?><svg xmlns="http://www.w3.org/2000/svg" xmlns:xlink="http://www.w3.org/1999/xlink" contentStyleType="text/css" height="293px" preserveAspectRatio="none" style="width:298px;height:293px;background:#FFFFFF;" version="1.1" viewBox="0 0 298 293" width="298px" zoomAndPan="magnify"><defs/><g><!--class Start--><g id="elem_Start"><rect codeLine="1" fill="#F1F1F1" height="100.8281" id="Start" rx="2.5" ry="2.5" style="stroke:#181818;stroke-width:0.5;" width="129" x="7" y="7"/><ellipse cx="52.25" cy="23" fill="#ADD1B2" rx="11" ry="11" style="stroke:#181818;stroke-width:1.0;"/><path d="M55.0156,18.875 Q55.1719,18.6563 55.3594,18.5469 Q55.5469,18.4375 55.7656,18.4375 Q56.1406,18.4375 56.375,18.7031 Q56.6094,18.9531 56.6094,19.5625 L56.6094,21.0156 Q56.6094,21.625 56.375,21.8906 Q56.1406,22.1563 55.7656,22.1563 Q55.4219,22.1563 55.2188,21.9531 Q55.0156,21.7656 54.9063,21.25 Q54.8594,20.8906 54.6719,20.7031 Q54.3438,20.3281 53.7344,20.1094 Q53.125,19.8906 52.5,19.8906 Q51.7344,19.8906 51.0938,20.2188 Q50.4688,20.5469 49.9688,21.2969 Q49.4844,22.0469 49.4844,23.0781 L49.4844,24.1719 Q49.4844,25.4063 50.375,26.2344 Q51.2656,27.0469 52.8594,27.0469 Q53.7969,27.0469 54.4531,26.7969 Q54.8438,26.6406 55.2656,26.2031 Q55.5313,25.9375 55.6719,25.8594 Q55.8281,25.7813 56.0313,25.7813 Q56.3594,25.7813 56.6094,26.0469 Q56.875,26.2969 56.875,26.6406 Q56.875,26.9844 56.5313,27.3906 Q56.0313,27.9688 55.2344,28.2969 Q54.1563,28.75 52.8594,28.75 Q51.3438,28.75 50.1406,28.125 Q49.1563,27.625 48.4688,26.5625 Q47.7813,25.4844 47.7813,24.2031 L47.7813,23.0469 Q47.7813,21.7188 48.3906,20.5781 Q49.0156,19.4219 50.1094,18.8125 Q51.2031,18.1875 52.4375,18.1875 Q53.1719,18.1875 53.8125,18.3594 Q54.4688,18.5156 55.0156,18.875 Z " fill="#000000"/><text fill="#000000" font-family="sans-serif" font-size="14" lengthAdjust="spacing" textLength="30" x="72.75" y="28.7285">Start</text><line style="stroke:#181818;stroke-width:0.5;" x1="8" x2="135" y1="39" y2="39"/><rect fill="none" height="6" style="stroke:#C82930;stroke-width:1.0;" width="6" x="15" y="50.3047"/><text fill="#000000" font-family="sans-serif" font-size="14" lengthAdjust="spacing" textLength="51" x="27" y="57.5332">id: Long</text><rect fill="none" height="6" style="stroke:#C82930;stroke-width:1.0;" width="6" x="15" y="67.9141"/><text fill="#000000" font-family="sans-serif" font-size="14" lengthAdjust="spacing" textLength="103" x="27" y="75.1426">customer: String</text><rect fill="none" height="6" style="stroke:#C82930;stroke-width:1.0;" width="6" x="15" y="85.5234"/><text fill="#000000" font-family="sans-serif" font-size="14" lengthAdjust="spacing" textLength="93" x="27" y="92.752">session: String</text><line style="stroke:#181818;stroke-width:0.5;" x1="8" x2="135" y1="99.8281" y2="99.8281"/></g><!--class Stage--><g id="elem_Stage"><rect codeLine="7" fill="#F1F1F1" height="100.8281" id="Stage" rx="2.5" ry="2.5" style="stroke:#181818;stroke-width:0.5;" width="120" x="171.5" y="7"/><ellipse cx="209.45" cy="23" fill="#ADD1B2" rx="11" ry="11" style="stroke:#181818;stroke-width:1.0;"/><path d="M212.2156,18.875 Q212.3719,18.6563 212.5594,18.5469 Q212.7469,18.4375 212.9656,18.4375 Q213.3406,18.4375 213.575,18.7031 Q213.8094,18.9531 213.8094,19.5625 L213.8094,21.0156 Q213.8094,21.625 213.575,21.8906 Q213.3406,22.1563 212.9656,22.1563 Q212.6219,22.1563 212.4188,21.9531 Q212.2156,21.7656 212.1063,21.25 Q212.0594,20.8906 211.8719,20.7031 Q211.5438,20.3281 210.9344,20.1094 Q210.325,19.8906 209.7,19.8906 Q208.9344,19.8906 208.2938,20.2188 Q207.6688,20.5469 207.1688,21.2969 Q206.6844,22.0469 206.6844,23.0781 L206.6844,24.1719 Q206.6844,25.4063 207.575,26.2344 Q208.4656,27.0469 210.0594,27.0469 Q210.9969,27.0469 211.6531,26.7969 Q212.0438,26.6406 212.4656,26.2031 Q212.7313,25.9375 212.8719,25.8594 Q213.0281,25.7813 213.2313,25.7813 Q213.5594,25.7813 213.8094,26.0469 Q214.075,26.2969 214.075,26.6406 Q214.075,26.9844 213.7313,27.3906 Q213.2313,27.9688 212.4344,28.2969 Q211.3563,28.75 210.0594,28.75 Q208.5438,28.75 207.3406,28.125 Q206.3563,27.625 205.6688,26.5625 Q204.9813,25.4844 204.9813,24.2031 L204.9813,23.0469 Q204.9813,21.7188 205.5906,20.5781 Q206.2156,19.4219 207.3094,18.8125 Q208.4031,18.1875 209.6375,18.1875 Q210.3719,18.1875 211.0125,18.3594 Q211.6688,18.5156 212.2156,18.875 Z " fill="#000000"/><text fill="#000000" font-family="sans-serif" font-size="14" lengthAdjust="spacing" textLength="37" x="228.55" y="28.7285">Stage</text><line style="stroke:#181818;stroke-width:0.5;" x1="172.5" x2="290.5" y1="39" y2="39"/><rect fill="none" height="6" style="stroke:#C82930;stroke-width:1.0;" width="6" x="179.5" y="50.3047"/><text fill="#000000" font-family="sans-serif" font-size="14" lengthAdjust="spacing" textLength="51" x="191.5" y="57.5332">id: Long</text><rect fill="none" height="6" style="stroke:#C82930;stroke-width:1.0;" width="6" x="179.5" y="67.9141"/><text fill="#000000" font-family="sans-serif" font-size="14" lengthAdjust="spacing" textLength="94" x="191.5" y="75.1426">location: String</text><rect fill="none" height="6" style="stroke:#C82930;stroke-width:1.0;" width="6" x="179.5" y="85.5234"/><text fill="#000000" font-family="sans-serif" font-size="14" lengthAdjust="spacing" textLength="61" x="191.5" y="92.752">url: String</text><line style="stroke:#181818;stroke-width:0.5;" x1="172.5" x2="290.5" y1="99.8281" y2="99.8281"/></g><!--class Transition--><g id="elem_Transition"><rect codeLine="13" fill="#F1F1F1" height="118.4375" id="Transition" rx="2.5" ry="2.5" style="stroke:#181818;stroke-width:0.5;" width="128" x="7.5" y="168"/><ellipse cx="37.35" cy="184" fill="#ADD1B2" rx="11" ry="11" style="stroke:#181818;stroke-width:1.0;"/><path d="M40.1156,179.875 Q40.2719,179.6563 40.4594,179.5469 Q40.6469,179.4375 40.8656,179.4375 Q41.2406,179.4375 41.475,179.7031 Q41.7094,179.9531 41.7094,180.5625 L41.7094,182.0156 Q41.7094,182.625 41.475,182.8906 Q41.2406,183.1563 40.8656,183.1563 Q40.5219,183.1563 40.3188,182.9531 Q40.1156,182.7656 40.0063,182.25 Q39.9594,181.8906 39.7719,181.7031 Q39.4438,181.3281 38.8344,181.1094 Q38.225,180.8906 37.6,180.8906 Q36.8344,180.8906 36.1938,181.2188 Q35.5688,181.5469 35.0688,182.2969 Q34.5844,183.0469 34.5844,184.0781 L34.5844,185.1719 Q34.5844,186.4063 35.475,187.2344 Q36.3656,188.0469 37.9594,188.0469 Q38.8969,188.0469 39.5531,187.7969 Q39.9438,187.6406 40.3656,187.2031 Q40.6313,186.9375 40.7719,186.8594 Q40.9281,186.7813 41.1313,186.7813 Q41.4594,186.7813 41.7094,187.0469 Q41.975,187.2969 41.975,187.6406 Q41.975,187.9844 41.6313,188.3906 Q41.1313,188.9688 40.3344,189.2969 Q39.2563,189.75 37.9594,189.75 Q36.4438,189.75 35.2406,189.125 Q34.2563,188.625 33.5688,187.5625 Q32.8813,186.4844 32.8813,185.2031 L32.8813,184.0469 Q32.8813,182.7188 33.4906,181.5781 Q34.1156,180.4219 35.2094,179.8125 Q36.3031,179.1875 37.5375,179.1875 Q38.2719,179.1875 38.9125,179.3594 Q39.5688,179.5156 40.1156,179.875 Z " fill="#000000"/><text fill="#000000" font-family="sans-serif" font-size="14" lengthAdjust="spacing" textLength="63" x="54.65" y="189.7285">Transition</text><line style="stroke:#181818;stroke-width:0.5;" x1="8.5" x2="134.5" y1="200" y2="200"/><rect fill="none" height="6" style="stroke:#C82930;stroke-width:1.0;" width="6" x="15.5" y="211.3047"/><text fill="#000000" font-family="sans-serif" font-size="14" lengthAdjust="spacing" textLength="51" x="27.5" y="218.5332">id: Long</text><rect fill="none" height="6" style="stroke:#C82930;stroke-width:1.0;" width="6" x="15.5" y="228.9141"/><text fill="#000000" font-family="sans-serif" font-size="14" lengthAdjust="spacing" textLength="96" x="27.5" y="236.1426">customer: Start</text><rect fill="none" height="6" style="stroke:#C82930;stroke-width:1.0;" width="6" x="15.5" y="246.5234"/><text fill="#000000" font-family="sans-serif" font-size="14" lengthAdjust="spacing" textLength="77" x="27.5" y="253.752">page: Stage</text><rect fill="none" height="6" style="stroke:#C82930;stroke-width:1.0;" width="6" x="15.5" y="264.1328"/><text fill="#000000" font-family="sans-serif" font-size="14" lengthAdjust="spacing" textLength="102" x="27.5" y="271.3613">timestamp: Date</text><line style="stroke:#181818;stroke-width:0.5;" x1="8.5" x2="134.5" y1="278.4375" y2="278.4375"/></g><!--SRC=[Kr1GK4ZEIImkLWWkIImgKQZcKe02NONC52i5d_oyT2IXvDBYalpSr28heFAYJ1IfujJYuipyF1IPMYum1RSWFPMG1JdvoOabwCP0f4gBSd0R7bAKc5US2T99YXU0FaQIAG2wpmhYJ2JHaipSrEAInDm2AmMNn1A8J2q0]--></g></svg>