<?xml version="1.0" encoding="UTF-8"?><svg xmlns="http://www.w3.org/2000/svg" xmlns:xlink="http://www.w3.org/1999/xlink" contentStyleType="text/css" height="150px" preserveAspectRatio="none" style="width:298px;height:150px;background:#FFFFFF;" version="1.1" viewBox="0 0 298 150" width="298px" zoomAndPan="magnify">
    <defs/>
    <g>
        <!--class Cart-->
        <g id="elem_Cart">
            <rect codeLine="1" fill="#F1F1F1" height="118.4375" id="Cart" rx="2.5" ry="2.5" style="stroke:#181818;stroke-width:0.5;" width="129" x="7" y="16"/>
            <ellipse cx="53.75" cy="32" fill="#ADD1B2" rx="11" ry="11" style="stroke:#181818;stroke-width:1.0;"/>
            <path d="M56.5156,27.875 Q56.6719,27.6563 56.8594,27.5469 Q57.0469,27.4375 57.2656,27.4375 Q57.6406,27.4375 57.875,27.7031 Q58.1094,27.9531 58.1094,28.5625 L58.1094,30.0156 Q58.1094,30.625 57.875,30.8906 Q57.6406,31.1563 57.2656,31.1563 Q56.9219,31.1563 56.7188,30.9531 Q56.5156,30.7656 56.4063,30.25 Q56.3594,29.8906 56.1719,29.7031 Q55.8438,29.3281 55.2344,29.1094 Q54.625,28.8906 54,28.8906 Q53.2344,28.8906 52.5938,29.2188 Q51.9688,29.5469 51.4688,30.2969 Q50.9844,31.0469 50.9844,32.0781 L50.9844,33.1719 Q50.9844,34.4063 51.875,35.2344 Q52.7656,36.0469 54.3594,36.0469 Q55.2969,36.0469 55.9531,35.7969 Q56.3438,35.6406 56.7656,35.2031 Q57.0313,34.9375 57.1719,34.8594 Q57.3281,34.7813 57.5313,34.7813 Q57.8594,34.7813 58.1094,35.0469 Q58.375,35.2969 58.375,35.6406 Q58.375,35.9844 58.0313,36.3906 Q57.5313,36.9688 56.7344,37.2969 Q55.6563,37.75 54.3594,37.75 Q52.8438,37.75 51.6406,37.125 Q50.6563,36.625 49.9688,35.5625 Q49.2813,34.4844 49.2813,33.2031 L49.2813,32.0469 Q49.2813,30.7188 49.8906,29.5781 Q50.5156,28.4219 51.6094,27.8125 Q52.7031,27.1875 53.9375,27.1875 Q54.6719,27.1875 55.3125,27.3594 Q55.9688,27.5156 56.5156,27.875 Z " fill="#000000"/>
            <text fill="#000000" font-family="sans-serif" font-size="14" lengthAdjust="spacing" textLength="27" x="74.25" y="37.7285">Cart</text>
            <line style="stroke:#181818;stroke-width:0.5;" x1="8" x2="135" y1="48" y2="48"/>
            <rect fill="none" height="6" style="stroke:#C82930;stroke-width:1.0;" width="6" x="15" y="59.3047"/>
            <text fill="#000000" font-family="sans-serif" font-size="14" lengthAdjust="spacing" textLength="50" x="27" y="66.5332">id: UUID</text>
            <rect fill="none" height="6" style="stroke:#C82930;stroke-width:1.0;" width="6" x="15" y="76.9141"/>
            <text fill="#000000" font-family="sans-serif" font-size="14" lengthAdjust="spacing" textLength="102" x="27" y="84.1426">timestamp: Date</text>
            <rect fill="none" height="6" style="stroke:#C82930;stroke-width:1.0;" width="6" x="15" y="94.5234"/>
            <text fill="#000000" font-family="sans-serif" font-size="14" lengthAdjust="spacing" textLength="103" x="27" y="101.752">customer: String</text>
            <rect fill="none" height="6" style="stroke:#C82930;stroke-width:1.0;" width="6" x="15" y="112.1328"/>
            <text fill="#000000" font-family="sans-serif" font-size="14" lengthAdjust="spacing" textLength="83" x="27" y="119.3613">status: String</text>
            <line style="stroke:#181818;stroke-width:0.5;" x1="8" x2="135" y1="126.4375" y2="126.4375"/>
        </g>
        <!--class Item-->
        <g id="elem_Item">
            <rect codeLine="8" fill="#F1F1F1" height="136.0469" id="Item" rx="2.5" ry="2.5" style="stroke:#181818;stroke-width:0.5;" width="120" x="171.5" y="7"/>
            <ellipse cx="214.4" cy="23" fill="#ADD1B2" rx="11" ry="11" style="stroke:#181818;stroke-width:1.0;"/>
            <path d="M217.1656,18.875 Q217.3219,18.6563 217.5094,18.5469 Q217.6969,18.4375 217.9156,18.4375 Q218.2906,18.4375 218.525,18.7031 Q218.7594,18.9531 218.7594,19.5625 L218.7594,21.0156 Q218.7594,21.625 218.525,21.8906 Q218.2906,22.1563 217.9156,22.1563 Q217.5719,22.1563 217.3688,21.9531 Q217.1656,21.7656 217.0563,21.25 Q217.0094,20.8906 216.8219,20.7031 Q216.4938,20.3281 215.8844,20.1094 Q215.275,19.8906 214.65,19.8906 Q213.8844,19.8906 213.2438,20.2188 Q212.6188,20.5469 212.1188,21.2969 Q211.6344,22.0469 211.6344,23.0781 L211.6344,24.1719 Q211.6344,25.4063 212.525,26.2344 Q213.4156,27.0469 215.0094,27.0469 Q215.9469,27.0469 216.6031,26.7969 Q216.9938,26.6406 217.4156,26.2031 Q217.6813,25.9375 217.8219,25.8594 Q217.9781,25.7813 218.1813,25.7813 Q218.5094,25.7813 218.7594,26.0469 Q219.025,26.2969 219.025,26.6406 Q219.025,26.9844 218.6813,27.3906 Q218.1813,27.9688 217.3844,28.2969 Q216.3063,28.75 215.0094,28.75 Q213.4938,28.75 212.2906,28.125 Q211.3063,27.625 210.6188,26.5625 Q209.9313,25.4844 209.9313,24.2031 L209.9313,23.0469 Q209.9313,21.7188 210.5406,20.5781 Q211.1656,19.4219 212.2594,18.8125 Q213.3531,18.1875 214.5875,18.1875 Q215.3219,18.1875 215.9625,18.3594 Q216.6188,18.5156 217.1656,18.875 Z " fill="#000000"/>
            <text fill="#000000" font-family="sans-serif" font-size="14" lengthAdjust="spacing" textLength="26" x="234.6" y="28.7285">Item</text>
            <line style="stroke:#181818;stroke-width:0.5;" x1="172.5" x2="290.5" y1="39" y2="39"/>
            <rect fill="none" height="6" style="stroke:#C82930;stroke-width:1.0;" width="6" x="179.5" y="50.3047"/>
            <text fill="#000000" font-family="sans-serif" font-size="14" lengthAdjust="spacing" textLength="50" x="191.5" y="57.5332">id: UUID</text>
            <rect fill="none" height="6" style="stroke:#C82930;stroke-width:1.0;" width="6" x="179.5" y="67.9141"/>
            <text fill="#000000" font-family="sans-serif" font-size="14" lengthAdjust="spacing" textLength="63" x="191.5" y="75.1426">cart: UUID</text>
            <rect fill="none" height="6" style="stroke:#C82930;stroke-width:1.0;" width="6" x="179.5" y="85.5234"/>
            <text fill="#000000" font-family="sans-serif" font-size="14" lengthAdjust="spacing" textLength="93" x="191.5" y="92.752">product: String</text>
            <rect fill="none" height="6" style="stroke:#C82930;stroke-width:1.0;" width="6" x="179.5" y="103.1328"/>
            <text fill="#000000" font-family="sans-serif" font-size="14" lengthAdjust="spacing" textLength="94" x="191.5" y="110.3613">quantity: Integr</text>
            <rect fill="none" height="6" style="stroke:#C82930;stroke-width:1.0;" width="6" x="179.5" y="120.7422"/>
            <text fill="#000000" font-family="sans-serif" font-size="14" lengthAdjust="spacing" textLength="84" x="191.5" y="127.9707">price: Double</text>
            <line style="stroke:#181818;stroke-width:0.5;" x1="172.5" x2="290.5" y1="135.0469" y2="135.0469"/>
        </g>
        <!--SRC=[XOyn2iCm54Ftd48Nw0MyDeldaWEupYSOOZkrvQ6KtBqcwU2GGF_oGGyX2G3iR7B6tIJYq-5tDxXHOHXqtqXqNZADNnHwGsc8BPdHIr9uCBamDQWQMF81hDtszc1DyV-2RIrt4fSKns9v4Vag9j3nhQ03PKe7axDIwyVodFS1wnS0]-->
    </g>
</svg>
