<?xml version="1.0" encoding="us-ascii" standalone="no"?><svg xmlns="http://www.w3.org/2000/svg" xmlns:xlink="http://www.w3.org/1999/xlink" contentStyleType="text/css" height="398px" preserveAspectRatio="none" style="width:333px;height:398px;background:#FFFFFF;" version="1.1" viewBox="0 0 333 398" width="333px" zoomAndPan="magnify"><defs/><g><!--class Address--><g id="elem_Address"><rect codeLine="1" fill="#F1F1F1" height="171.2656" id="Address" rx="2.5" ry="2.5" style="stroke:#181818;stroke-width:0.5;" width="147" x="7" y="7"/><ellipse cx="50.35" cy="23" fill="#ADD1B2" rx="11" ry="11" style="stroke:#181818;stroke-width:1.0;"/><path d="M53.1156,18.875 Q53.2719,18.6563 53.4594,18.5469 Q53.6469,18.4375 53.8656,18.4375 Q54.2406,18.4375 54.475,18.7031 Q54.7094,18.9531 54.7094,19.5625 L54.7094,21.0156 Q54.7094,21.625 54.475,21.8906 Q54.2406,22.1563 53.8656,22.1563 Q53.5219,22.1563 53.3188,21.9531 Q53.1156,21.7656 53.0063,21.25 Q52.9594,20.8906 52.7719,20.7031 Q52.4438,20.3281 51.8344,20.1094 Q51.225,19.8906 50.6,19.8906 Q49.8344,19.8906 49.1938,20.2188 Q48.5688,20.5469 48.0688,21.2969 Q47.5844,22.0469 47.5844,23.0781 L47.5844,24.1719 Q47.5844,25.4063 48.475,26.2344 Q49.3656,27.0469 50.9594,27.0469 Q51.8969,27.0469 52.5531,26.7969 Q52.9438,26.6406 53.3656,26.2031 Q53.6313,25.9375 53.7719,25.8594 Q53.9281,25.7813 54.1313,25.7813 Q54.4594,25.7813 54.7094,26.0469 Q54.975,26.2969 54.975,26.6406 Q54.975,26.9844 54.6313,27.3906 Q54.1313,27.9688 53.3344,28.2969 Q52.2563,28.75 50.9594,28.75 Q49.4438,28.75 48.2406,28.125 Q47.2563,27.625 46.5688,26.5625 Q45.8813,25.4844 45.8813,24.2031 L45.8813,23.0469 Q45.8813,21.7188 46.4906,20.5781 Q47.1156,19.4219 48.2094,18.8125 Q49.3031,18.1875 50.5375,18.1875 Q51.2719,18.1875 51.9125,18.3594 Q52.5688,18.5156 53.1156,18.875 Z " fill="#000000"/><text fill="#000000" font-family="sans-serif" font-size="14" lengthAdjust="spacing" textLength="52" x="70.65" y="28.7285">Address</text><line style="stroke:#181818;stroke-width:0.5;" x1="8" x2="153" y1="39" y2="39"/><rect fill="none" height="6" style="stroke:#C82930;stroke-width:1.0;" width="6" x="15" y="50.3047"/><text fill="#000000" font-family="sans-serif" font-size="14" lengthAdjust="spacing" textLength="34" x="27" y="57.5332">id: int</text><rect fill="none" height="6" style="stroke:#C82930;stroke-width:1.0;" width="6" x="15" y="67.9141"/><text fill="#000000" font-family="sans-serif" font-size="14" lengthAdjust="spacing" textLength="66" x="27" y="75.1426">city: String</text><rect fill="none" height="6" style="stroke:#C82930;stroke-width:1.0;" width="6" x="15" y="85.5234"/><text fill="#000000" font-family="sans-serif" font-size="14" lengthAdjust="spacing" textLength="81" x="27" y="92.752">street: String</text><rect fill="none" height="6" style="stroke:#C82930;stroke-width:1.0;" width="6" x="15" y="103.1328"/><text fill="#000000" font-family="sans-serif" font-size="14" lengthAdjust="spacing" textLength="88" x="27" y="110.3613">number: Long</text><rect fill="none" height="6" style="stroke:#C82930;stroke-width:1.0;" width="6" x="15" y="120.7422"/><text fill="#000000" font-family="sans-serif" font-size="14" lengthAdjust="spacing" textLength="121" x="27" y="127.9707">complement: String</text><rect fill="none" height="6" style="stroke:#C82930;stroke-width:1.0;" width="6" x="15" y="138.3516"/><text fill="#000000" font-family="sans-serif" font-size="14" lengthAdjust="spacing" textLength="112" x="27" y="145.5801">federalunit: String</text><rect fill="none" height="6" style="stroke:#C82930;stroke-width:1.0;" width="6" x="15" y="155.9609"/><text fill="#000000" font-family="sans-serif" font-size="14" lengthAdjust="spacing" textLength="93" x="27" y="163.1895">zipcode: String</text><line style="stroke:#181818;stroke-width:0.5;" x1="8" x2="153" y1="170.2656" y2="170.2656"/></g><!--class Customer--><g id="elem_Customer"><rect codeLine="10" fill="#F1F1F1" height="153.6563" id="Customer" rx="2.5" ry="2.5" style="stroke:#181818;stroke-width:0.5;" width="137" x="189" y="15.5"/><ellipse cx="223.8" cy="31.5" fill="#ADD1B2" rx="11" ry="11" style="stroke:#181818;stroke-width:1.0;"/><path d="M226.5656,27.375 Q226.7219,27.1563 226.9094,27.0469 Q227.0969,26.9375 227.3156,26.9375 Q227.6906,26.9375 227.925,27.2031 Q228.1594,27.4531 228.1594,28.0625 L228.1594,29.5156 Q228.1594,30.125 227.925,30.3906 Q227.6906,30.6563 227.3156,30.6563 Q226.9719,30.6563 226.7688,30.4531 Q226.5656,30.2656 226.4563,29.75 Q226.4094,29.3906 226.2219,29.2031 Q225.8938,28.8281 225.2844,28.6094 Q224.675,28.3906 224.05,28.3906 Q223.2844,28.3906 222.6438,28.7188 Q222.0188,29.0469 221.5188,29.7969 Q221.0344,30.5469 221.0344,31.5781 L221.0344,32.6719 Q221.0344,33.9063 221.925,34.7344 Q222.8156,35.5469 224.4094,35.5469 Q225.3469,35.5469 226.0031,35.2969 Q226.3938,35.1406 226.8156,34.7031 Q227.0813,34.4375 227.2219,34.3594 Q227.3781,34.2813 227.5813,34.2813 Q227.9094,34.2813 228.1594,34.5469 Q228.425,34.7969 228.425,35.1406 Q228.425,35.4844 228.0813,35.8906 Q227.5813,36.4688 226.7844,36.7969 Q225.7063,37.25 224.4094,37.25 Q222.8938,37.25 221.6906,36.625 Q220.7063,36.125 220.0188,35.0625 Q219.3313,33.9844 219.3313,32.7031 L219.3313,31.5469 Q219.3313,30.2188 219.9406,29.0781 Q220.5656,27.9219 221.6594,27.3125 Q222.7531,26.6875 223.9875,26.6875 Q224.7219,26.6875 225.3625,26.8594 Q226.0188,27.0156 226.5656,27.375 Z " fill="#000000"/><text fill="#000000" font-family="sans-serif" font-size="14" lengthAdjust="spacing" textLength="61" x="242.2" y="37.2285">Customer</text><line style="stroke:#181818;stroke-width:0.5;" x1="190" x2="325" y1="47.5" y2="47.5"/><rect fill="none" height="6" style="stroke:#C82930;stroke-width:1.0;" width="6" x="197" y="58.8047"/><text fill="#000000" font-family="sans-serif" font-size="14" lengthAdjust="spacing" textLength="51" x="209" y="66.0332">id: Long</text><rect fill="none" height="6" style="stroke:#C82930;stroke-width:1.0;" width="6" x="197" y="76.4141"/><text fill="#000000" font-family="sans-serif" font-size="14" lengthAdjust="spacing" textLength="75" x="209" y="83.6426">login: String</text><rect fill="none" height="6" style="stroke:#C82930;stroke-width:1.0;" width="6" x="197" y="94.0234"/><text fill="#000000" font-family="sans-serif" font-size="14" lengthAdjust="spacing" textLength="80" x="209" y="101.252">name: String</text><rect fill="none" height="6" style="stroke:#C82930;stroke-width:1.0;" width="6" x="197" y="111.6328"/><text fill="#000000" font-family="sans-serif" font-size="14" lengthAdjust="spacing" textLength="78" x="209" y="118.8613">email: String</text><rect fill="none" height="6" style="stroke:#C82930;stroke-width:1.0;" width="6" x="197" y="129.2422"/><text fill="#000000" font-family="sans-serif" font-size="14" lengthAdjust="spacing" textLength="85" x="209" y="136.4707">phone: String</text><rect fill="none" height="6" style="stroke:#C82930;stroke-width:1.0;" width="6" x="197" y="146.8516"/><text fill="#000000" font-family="sans-serif" font-size="14" lengthAdjust="spacing" textLength="111" x="209" y="154.0801">address: Address</text><line style="stroke:#181818;stroke-width:0.5;" x1="190" x2="325" y1="161.1563" y2="161.1563"/></g><!--class Product--><g id="elem_Product"><rect codeLine="18" fill="#F1F1F1" height="153.6563" id="Product" rx="2.5" ry="2.5" style="stroke:#181818;stroke-width:0.5;" width="140" x="10.5" y="238"/><ellipse cx="52.05" cy="254" fill="#ADD1B2" rx="11" ry="11" style="stroke:#181818;stroke-width:1.0;"/><path d="M54.8156,249.875 Q54.9719,249.6563 55.1594,249.5469 Q55.3469,249.4375 55.5656,249.4375 Q55.9406,249.4375 56.175,249.7031 Q56.4094,249.9531 56.4094,250.5625 L56.4094,252.0156 Q56.4094,252.625 56.175,252.8906 Q55.9406,253.1563 55.5656,253.1563 Q55.2219,253.1563 55.0188,252.9531 Q54.8156,252.7656 54.7063,252.25 Q54.6594,251.8906 54.4719,251.7031 Q54.1438,251.3281 53.5344,251.1094 Q52.925,250.8906 52.3,250.8906 Q51.5344,250.8906 50.8938,251.2188 Q50.2688,251.5469 49.7688,252.2969 Q49.2844,253.0469 49.2844,254.0781 L49.2844,255.1719 Q49.2844,256.4063 50.175,257.2344 Q51.0656,258.0469 52.6594,258.0469 Q53.5969,258.0469 54.2531,257.7969 Q54.6438,257.6406 55.0656,257.2031 Q55.3313,256.9375 55.4719,256.8594 Q55.6281,256.7813 55.8313,256.7813 Q56.1594,256.7813 56.4094,257.0469 Q56.675,257.2969 56.675,257.6406 Q56.675,257.9844 56.3313,258.3906 Q55.8313,258.9688 55.0344,259.2969 Q53.9563,259.75 52.6594,259.75 Q51.1438,259.75 49.9406,259.125 Q48.9563,258.625 48.2688,257.5625 Q47.5813,256.4844 47.5813,255.2031 L47.5813,254.0469 Q47.5813,252.7188 48.1906,251.5781 Q48.8156,250.4219 49.9094,249.8125 Q51.0031,249.1875 52.2375,249.1875 Q52.9719,249.1875 53.6125,249.3594 Q54.2688,249.5156 54.8156,249.875 Z " fill="#000000"/><text fill="#000000" font-family="sans-serif" font-size="14" lengthAdjust="spacing" textLength="49" x="71.95" y="259.7285">Product</text><line style="stroke:#181818;stroke-width:0.5;" x1="11.5" x2="149.5" y1="270" y2="270"/><rect fill="none" height="6" style="stroke:#C82930;stroke-width:1.0;" width="6" x="18.5" y="281.3047"/><text fill="#000000" font-family="sans-serif" font-size="14" lengthAdjust="spacing" textLength="51" x="30.5" y="288.5332">id: Long</text><rect fill="none" height="6" style="stroke:#C82930;stroke-width:1.0;" width="6" x="18.5" y="298.9141"/><text fill="#000000" font-family="sans-serif" font-size="14" lengthAdjust="spacing" textLength="80" x="30.5" y="306.1426">name: String</text><rect fill="none" height="6" style="stroke:#C82930;stroke-width:1.0;" width="6" x="18.5" y="316.5234"/><text fill="#000000" font-family="sans-serif" font-size="14" lengthAdjust="spacing" textLength="114" x="30.5" y="323.752">description: String</text><rect fill="none" height="6" style="stroke:#C82930;stroke-width:1.0;" width="6" x="18.5" y="334.1328"/><text fill="#000000" font-family="sans-serif" font-size="14" lengthAdjust="spacing" textLength="84" x="30.5" y="341.3613">price: Double</text><rect fill="none" height="6" style="stroke:#C82930;stroke-width:1.0;" width="6" x="18.5" y="351.7422"/><text fill="#000000" font-family="sans-serif" font-size="14" lengthAdjust="spacing" textLength="100" x="30.5" y="358.9707">category: String</text><rect fill="none" height="6" style="stroke:#C82930;stroke-width:1.0;" width="6" x="18.5" y="369.3516"/><text fill="#000000" font-family="sans-serif" font-size="14" lengthAdjust="spacing" textLength="77" x="30.5" y="376.5801">page: String</text><line style="stroke:#181818;stroke-width:0.5;" x1="11.5" x2="149.5" y1="383.6563" y2="383.6563"/></g><!--SRC=[XP512W8n34NtdY8Ny0BTYIvT29wWjd4Cj4r9quMATtTm54QDs4KB_pVm_Wy0G4Y-DLZ5A3Y-rmKypn8eEg2YCoMGdXtiLQWCCxcf8AfXb9uFA0ws_2O7pZLXncBD736Y-DGBMUw5Qk28RyxjSKyvrhqfPvIl81y8YGSg5h7FQCYOFIL3hoSkrdy_rUbUlNvnxeHZ3_eFymTEn1Q4gX9R6QfG6ASst0y9vxLxnO75sc3rmqUdTm00]--></g></svg>